<svg xmlns="http://www.w3.org/2000/svg" version="1.1" xmlns:xlink="http://www.w3.org/1999/xlink" viewBox="0 0 200 200" width="200" height="200"><metadata><rdf:RDF xmlns:rdf="http://www.w3.org/1999/02/22-rdf-syntax-ns#" xmlns:dc="http://purl.org/dc/elements/1.1/"><rdf:Description><dc:creator>RealFaviconGenerator</dc:creator><dc:source>https://realfavicongenerator.net</dc:source></rdf:Description></rdf:RDF></metadata><rect width="200" height="200" fill="url('#gradient')"></rect><defs><linearGradient id="gradient" gradientTransform="rotate(45 0.5 0.5)"><stop offset="0%" stop-color="#e3edb8"></stop><stop offset="100%" stop-color="#f6d562"></stop></linearGradient></defs><g><g fill="#373b60" transform="matrix(1.4137041924677698,0,0,1.4137041924677698,30.65995685499388,110.47070619452244)" stroke="#0c9da2" stroke-width="0.2"><path d="M7.37-10.64L7.31-7.59L6.23-7.67Q4.68-7.67 4.24-6.69L4.24-6.69L4.24 0L0.95 0L0.95-10.57L4.03-10.57L4.14-9.21Q4.97-10.76 6.46-10.76L6.46-10.76Q6.98-10.76 7.37-10.64L7.37-10.64ZM13.43 0.20L13.43 0.20Q11.00 0.20 9.49-1.25Q7.99-2.71 7.99-5.03L7.99-5.03L7.99-5.30Q7.99-6.92 8.59-8.16Q9.19-9.40 10.34-10.08Q11.49-10.76 13.08-10.76L13.08-10.76Q15.30-10.76 16.59-9.38Q17.88-8.00 17.88-5.53L17.88-5.53L17.88-4.25L11.34-4.25Q11.51-3.36 12.11-2.85Q12.71-2.34 13.65-2.34L13.65-2.34Q15.21-2.34 16.09-3.44L16.09-3.44L17.60-1.66Q16.98-0.81 15.85-0.31Q14.73 0.20 13.43 0.20ZM13.06-8.22L13.06-8.22Q11.61-8.22 11.34-6.31L11.34-6.31L14.66-6.31L14.66-6.56Q14.68-7.35 14.26-7.79Q13.84-8.22 13.06-8.22ZM19.23-10.57L22.31-10.57L22.42-9.33Q23.54-10.76 25.44-10.76L25.44-10.76Q27.44-10.76 28.14-9.17L28.14-9.17Q29.22-10.76 31.25-10.76L31.25-10.76Q34.46-10.76 34.55-6.88L34.55-6.88L34.55 0L31.25 0L31.25-6.67Q31.25-7.48 30.98-7.85Q30.70-8.22 29.98-8.22L29.98-8.22Q29.00-8.22 28.53-7.35L28.53-7.35L28.54-7.22L28.54 0L25.23 0L25.23-6.65Q25.23-7.48 24.97-7.85Q24.71-8.22 23.96-8.22L23.96-8.22Q23.02-8.22 22.52-7.35L22.52-7.35L22.52 0L19.23 0L19.23-10.57ZM36.03-4.82L36.02-5.38Q36.02-6.96 36.63-8.20Q37.25-9.43 38.40-10.10Q39.55-10.76 41.10-10.76L41.10-10.76Q43.48-10.76 44.84-9.29Q46.21-7.82 46.21-5.29L46.21-5.29L46.21-5.18Q46.21-2.71 44.84-1.25Q43.47 0.20 41.12 0.20L41.12 0.20Q38.87 0.20 37.50-1.16Q36.13-2.51 36.03-4.82L36.03-4.82ZM39.32-5.77L39.31-5.18Q39.31-3.71 39.77-3.03Q40.22-2.34 41.12-2.34L41.12-2.34Q42.88-2.34 42.92-5.05L42.92-5.05L42.92-5.38Q42.92-8.22 41.10-8.22L41.10-8.22Q39.45-8.22 39.32-5.77L39.32-5.77ZM47.60-10.57L50.68-10.57L50.79-9.33Q51.88-10.76 53.81-10.76L53.81-10.76Q55.46-10.76 56.27-9.78Q57.09-8.79 57.12-6.81L57.12-6.81L57.12 0L53.82 0L53.82-6.67Q53.82-7.47 53.50-7.85Q53.17-8.22 52.32-8.22L52.32-8.22Q51.36-8.22 50.89-7.46L50.89-7.46L50.89 0L47.60 0L47.60-10.57ZM59.48-13.19L62.77-13.19L62.77-10.57L64.51-10.57L64.51-8.28L62.77-8.28L62.77-3.45Q62.77-2.85 62.99-2.62Q63.20-2.38 63.84-2.38L63.84-2.38Q64.33-2.38 64.66-2.44L64.66-2.44L64.66-0.09Q63.77 0.20 62.80 0.20L62.80 0.20Q61.10 0.20 60.29-0.61Q59.48-1.41 59.48-3.04L59.48-3.04L59.48-8.28L58.13-8.28L58.13-10.57L59.48-10.57L59.48-13.19ZM69.28-15L69.28 0L65.98 0L65.98-15L69.28-15ZM77.70 0L77.60-1.14Q76.55 0.20 74.78 0.20L74.78 0.20Q73.04 0.20 72.14-0.82Q71.25-1.83 71.25-3.72L71.25-3.72L71.25-10.57L74.54-10.57L74.54-3.70Q74.54-2.34 75.86-2.34L75.86-2.34Q76.99-2.34 77.47-3.15L77.47-3.15L77.47-10.57L80.78-10.57L80.78 0L77.70 0ZM89.13 0L86.83-3.94L85.90-3.01L85.90 0L82.61 0L82.61-15.01L85.90-15.01L85.90-7.04L86.23-7.48L88.71-10.57L92.66-10.57L88.96-6.22L92.90 0L89.13 0ZM96.99-10.57L96.99 0L93.69 0L93.69-10.57L96.99-10.57ZM93.50-13.29L93.50-13.29Q93.50-13.99 94.00-14.44Q94.51-14.89 95.32-14.89Q96.13-14.89 96.64-14.44Q97.15-13.99 97.15-13.29Q97.15-12.59 96.64-12.14Q96.13-11.69 95.32-11.69Q94.51-11.69 94.00-12.14Q93.50-12.59 93.50-13.29Z"></path></g></g></svg>